<svg xmlns="http://www.w3.org/2000/svg" xmlns:xlink="http://www.w3.org/1999/xlink" viewBox="0 0 258.94 61.74"><defs><style>.cls-1{fill:url(#linear-gradient);}.cls-2{fill:url(#linear-gradient-2);}.cls-3{fill:url(#linear-gradient-3);}.cls-4{fill:url(#linear-gradient-4);}.cls-5{fill:url(#linear-gradient-5);}.cls-6{font-size:41.5px;fill:#fbb03b;font-family:ArgentumSans-Light, Argentum Sans;font-weight:300;}.cls-7,.cls-8,.cls-9{fill:#c1272d;font-family:ArgentumSans, Argentum Sans;font-weight:400;}.cls-8{letter-spacing:-0.02em;}.cls-9{letter-spacing:-0.01em;}</style><linearGradient id="linear-gradient" x1="-39.42" y1="103.6" x2="-32.7" y2="106.14" gradientTransform="translate(332.77 77.25) rotate(89.98)" gradientUnits="userSpaceOnUse"><stop offset="0" stop-color="#ead88b"/><stop offset="1" stop-color="#fbb03b"/></linearGradient><linearGradient id="linear-gradient-2" x1="202.21" y1="8.63" x2="256.85" y2="29.25" gradientTransform="matrix(1, 0, 0, 1, 0, 0)" xlink:href="#linear-gradient"/><linearGradient id="linear-gradient-3" x1="207.67" y1="37.46" x2="251.6" y2="54.04" gradientTransform="matrix(1, 0, 0, 1, 0, 0)" xlink:href="#linear-gradient"/><linearGradient id="linear-gradient-4" x1="211.83" y1="47.83" x2="216.91" y2="49.75" gradientTransform="matrix(1, 0, 0, 1, 0, 0)" xlink:href="#linear-gradient"/><linearGradient id="linear-gradient-5" x1="239.85" y1="47.39" x2="247.34" y2="50.21" gradientTransform="matrix(1, 0, 0, 1, 0, 0)" xlink:href="#linear-gradient"/></defs><g id="Layer_2" data-name="Layer 2"><g id="Layer_1-2" data-name="Layer 1"><rect class="cls-1" x="225.22" y="38.58" width="5.4" height="5.17" transform="translate(37.6 173.14) rotate(-44.98)"/><polygon class="cls-2" points="242.66 6.17 241.59 28.5 236.56 28.62 234.47 18.85 237.12 15.6 228.4 5.13 221.08 15.95 224.03 19.13 221.14 28.45 215.79 28.5 214.81 16.56 202.47 11.18 206.86 40.42 222.12 40.42 228 34.54 233.36 40.42 250 40.42 254.4 5.23 258.92 2.72 258.94 0 242.66 6.17"/><path class="cls-3" d="M250,42.11H233l-5.51,5.52-5-5.52H206.89l.76,6.66h2.61a4.05,4.05,0,0,1,8.1,0h19.41a5.74,5.74,0,1,1,11.47,0h2.23Z"/><circle class="cls-4" cx="214.31" cy="48.77" r="2.55"/><circle class="cls-5" cx="243.51" cy="48.77" r="3.75"/><text class="cls-6" transform="translate(0 44.89)">Cart<tspan class="cls-7" x="84.61" y="0">R</tspan><tspan class="cls-8" x="114.61" y="0">o</tspan><tspan class="cls-9" x="139.72" y="0">y</tspan><tspan class="cls-7" x="161.13" y="0">al</tspan></text></g></g></svg>